<?xml version="1.0" encoding="utf-8" ?>
<svg baseProfile="full" height="959px" version="1.1" width="1080px" xmlns="http://www.w3.org/2000/svg" xmlns:ev="http://www.w3.org/2001/xml-events" xmlns:xlink="http://www.w3.org/1999/xlink"><defs />
<polygon fill="#3C3835" id="shape_1" points="807,724 805,726 805,727 804,728 804,729 803,730 803,731 802,732 802,733 801,734 801,736 800,737 800,738 799,739 799,740 798,741 798,742 797,743 797,745 796,746 796,747 795,748 795,749 794,750 794,752 793,753 793,754 792,755 792,756 791,757 791,758 790,759 790,761 789,762 789,763 788,764 788,765 787,766 787,767 786,768 786,769 785,770 785,771 784,772 784,774 783,775 783,776 782,777 782,778 781,779 781,781 780,782 780,783 779,784 779,785 778,786 778,788 777,789 777,790 776,791 776,792 775,793 775,794 774,795 774,796 773,797 773,798 772,799 772,801 771,802 771,803 770,804 770,805 769,806 769,808 768,809 768,810 767,811 767,812 766,813 766,814 765,815 765,817 764,818 764,819 763,820 763,821 762,822 762,823 761,824 761,826 760,827 760,828 759,829 759,830 758,831 758,832 757,833 757,834 756,835 756,837 755,838 755,839 754,840 754,841 753,842 753,844 752,845 752,846 751,847 751,848 750,849 750,850 749,851 749,853 748,854 748,855 747,856 747,858 748,859 777,859 778,858 778,856 779,855 779,854 780,853 780,852 781,851 781,849 782,848 782,847 783,846 783,844 784,843 784,842 785,841 785,839 786,838 786,837 787,836 787,834 788,833 788,832 790,830 853,830 854,831 854,833 855,834 855,835 856,836 856,837 857,838 857,840 858,841 858,843 859,844 859,845 860,846 860,847 861,848 861,850 862,851 862,852 863,853 863,854 864,855 864,857 866,859 895,859 896,858 896,856 895,855 895,853 894,852 894,851 893,850 893,849 892,848 892,846 891,845 891,844 890,843 890,842 889,841 889,840 888,839 888,838 887,837 887,835 886,834 886,833 885,832 885,831 884,830 884,829 883,828 883,827 882,826 882,824 881,823 881,822 880,821 880,820 879,819 879,817 878,816 878,815 877,814 877,813 876,812 876,811 875,810 875,809 874,808 874,806 873,805 873,804 872,803 872,802 871,801 871,800 870,799 870,797 869,796 869,795 868,794 868,793 867,792 867,791 866,790 866,788 865,787 865,786 864,785 864,784 863,783 863,782 862,781 862,780 861,779 861,777 860,776 860,775 859,774 859,773 858,772 858,771 857,770 857,768 856,767 856,766 855,765 855,764 854,763 854,762 853,761 853,759 852,758 852,757 851,756 851,755 850,754 850,752 848,750 848,748 847,747 847,746 846,745 846,744 845,743 845,742 844,741 844,739 843,738 843,737 842,736 842,735 841,734 841,732 840,731 840,730 839,729 839,728 838,727 838,726 836,724" />
<polygon fill="#3C3835" id="shape_2" points="564,724 563,725 563,858 564,859 591,859 592,858 592,783 593,782 594,782 596,784 596,785 597,786 597,787 599,789 599,790 600,791 600,792 602,794 602,795 604,797 604,798 605,799 605,800 607,802 607,803 608,804 608,805 610,807 610,808 612,810 612,811 613,812 613,813 615,815 615,816 616,817 616,818 618,820 618,821 619,822 619,823 621,825 621,826 622,827 622,828 624,830 624,831 626,833 626,834 627,835 627,836 629,838 629,839 630,840 630,841 633,844 637,844 638,845 639,844 640,845 641,844 646,844 648,842 648,841 650,839 650,838 651,837 651,836 653,834 653,833 654,832 654,831 656,829 656,828 657,827 657,826 659,824 659,823 660,822 660,821 662,819 662,818 663,817 663,816 665,814 665,813 666,812 666,811 667,810 667,809 669,807 669,806 670,805 670,804 672,802 672,801 673,800 673,799 675,797 675,796 676,795 676,794 678,792 678,791 679,790 679,789 681,787 681,786 682,785 682,784 684,782 684,781 685,780 686,780 687,781 687,858 688,859 715,859 716,858 716,725 715,724 690,724 689,725 689,726 688,727 688,728 686,730 686,731 685,732 685,733 684,734 684,735 682,737 682,738 681,739 681,740 679,742 679,743 678,744 678,745 676,747 676,748 675,749 675,750 674,751 674,752 672,754 672,755 670,757 670,758 669,759 669,760 667,762 667,763 666,764 666,765 665,766 665,767 664,768 664,769 662,771 662,772 660,774 660,775 659,776 659,777 657,779 657,780 656,781 656,782 654,784 654,785 653,786 653,787 652,788 652,789 650,791 650,792 648,794 648,795 647,796 647,797 646,798 646,799 644,801 644,802 643,803 643,804 640,807 639,807 638,806 638,805 637,804 637,803 635,801 635,800 634,799 634,798 632,796 632,795 631,794 631,793 629,791 629,790 628,789 628,788 626,786 626,785 625,784 625,783 623,781 623,780 622,779 622,778 620,776 620,775 619,774 619,773 617,771 617,770 615,768 615,767 614,766 614,765 612,763 612,762 611,761 611,760 609,758 609,757 608,756 608,755 606,753 606,752 605,751 605,750 603,748 603,747 602,746 602,745 600,743 600,742 599,741 599,740 597,738 597,737 596,736 596,735 594,733 594,732 593,731 593,730 591,728 591,727 590,726 590,725 589,724" />
<polygon fill="#3C3835" id="shape_3" points="364,724 363,725 363,858 364,859 391,859 392,858 392,783 393,782 394,782 396,784 396,785 397,786 397,787 398,788 398,789 400,791 400,792 402,794 402,795 403,796 403,797 405,799 405,800 406,801 406,802 408,804 408,805 409,806 409,807 411,809 411,810 413,812 413,813 414,814 414,815 416,817 416,818 417,819 417,820 419,822 419,823 420,824 420,825 422,827 422,828 423,829 423,830 425,832 425,833 426,834 426,835 428,837 428,838 429,839 429,840 431,842 431,843 432,844 446,844 448,842 448,841 450,839 450,838 451,837 451,836 452,835 452,834 454,832 454,831 455,830 455,829 457,827 457,826 458,825 458,824 460,822 460,821 461,820 461,819 463,817 463,816 464,815 464,814 466,812 466,811 467,810 467,809 469,807 469,806 470,805 470,804 472,802 472,801 473,800 473,799 474,798 474,797 476,795 476,794 477,793 477,792 479,790 479,789 480,788 480,787 482,785 482,784 483,783 483,782 485,780 486,780 487,781 487,858 488,859 515,859 516,858 516,785 515,784 515,725 514,724 490,724 489,725 489,726 488,727 488,728 486,730 486,731 485,732 485,733 483,735 483,736 482,737 482,738 480,740 480,741 479,742 479,743 477,745 477,746 476,747 476,748 474,750 474,751 473,752 473,753 471,755 471,756 470,757 470,758 469,759 469,760 467,762 467,763 466,764 466,765 464,767 464,768 463,769 463,770 461,772 461,773 460,774 460,775 458,777 458,778 457,779 457,780 455,782 455,783 454,784 454,785 452,787 452,788 451,789 451,790 450,791 450,792 448,794 448,795 447,796 447,797 445,799 445,800 444,801 444,802 442,804 442,805 440,807 439,807 438,806 438,805 436,803 436,802 434,800 434,799 433,798 433,797 432,796 432,795 430,793 430,792 428,790 428,789 427,788 427,787 425,785 425,784 424,783 424,782 422,780 422,779 421,778 421,777 419,775 419,774 418,773 418,772 416,770 416,769 415,768 415,767 413,765 413,764 412,763 412,762 410,760 410,759 409,758 409,757 407,755 407,754 406,753 406,752 404,750 404,749 403,748 403,747 401,745 401,744 400,743 400,742 398,740 398,739 396,737 396,736 395,735 395,734 394,733 394,732 392,730 392,729 391,728 391,727 388,724" />
<polygon fill="#3C3835" id="shape_4" points="243,724 241,726 241,727 240,728 240,729 239,730 239,731 238,732 238,734 237,735 237,736 236,737 236,738 235,739 235,741 234,742 234,743 233,744 233,745 232,746 232,747 231,748 231,750 230,751 230,752 229,753 229,754 228,755 228,756 227,757 227,758 226,759 226,761 225,762 225,763 224,764 224,765 223,766 223,767 222,768 222,770 221,771 221,772 220,773 220,774 219,775 219,777 218,778 218,779 217,780 217,781 216,782 216,783 215,784 215,786 214,787 214,788 213,789 213,790 212,791 212,792 211,793 211,794 210,795 210,797 209,798 209,799 208,800 208,801 207,802 207,803 206,804 206,806 205,807 205,808 204,809 204,810 203,811 203,813 202,814 202,815 201,816 201,817 200,818 200,819 199,820 199,821 198,822 198,823 197,824 197,826 196,827 196,828 195,829 195,830 194,831 194,833 193,834 193,835 192,836 192,837 191,838 191,839 190,840 190,842 189,843 189,844 188,845 188,846 187,847 187,848 186,849 186,850 185,851 185,853 184,854 184,855 183,856 183,858 184,859 213,859 214,858 214,857 215,856 215,854 216,853 216,852 217,851 217,850 218,849 218,847 219,846 219,844 220,843 220,842 221,841 221,840 222,839 222,837 223,836 223,835 224,834 224,833 225,832 225,831 226,830 289,830 290,831 290,832 291,833 291,835 292,836 292,837 293,838 293,840 294,841 294,842 295,843 295,845 296,846 296,847 297,848 297,849 298,850 298,852 299,853 299,854 300,855 300,857 302,859 332,859 333,858 333,857 332,856 332,855 331,854 331,853 330,852 330,851 329,850 329,848 328,847 328,846 327,845 327,844 326,843 326,842 325,841 325,840 324,839 324,837 323,836 323,835 322,834 322,833 321,832 321,831 320,830 320,828 319,827 319,826 318,825 318,824 317,823 317,822 316,821 316,819 315,818 315,817 314,816 314,815 313,814 313,813 312,812 312,811 311,810 311,808 310,807 310,806 309,805 309,804 308,803 308,802 307,801 307,799 306,798 306,797 305,796 305,795 304,794 304,792 303,791 303,790 302,789 302,788 301,787 301,786 300,785 300,784 299,783 299,782 298,781 298,779 297,778 297,777 296,776 296,775 295,774 295,772 294,771 294,770 293,769 293,768 292,767 292,766 291,765 291,763 290,762 290,761 289,760 289,759 288,758 288,757 287,756 287,755 286,754 286,752 285,751 285,750 284,749 284,748 283,747 283,746 282,745 282,743 281,742 281,741 280,740 280,739 279,738 279,737 278,736 278,734 277,733 277,732 276,731 276,730 275,729 275,728 274,727 274,726 272,724" />
<polygon fill="#A2D183" id="shape_5" points="532,538 531,539 527,539 526,540 524,540 523,541 520,541 519,542 518,542 517,543 516,543 515,544 514,544 513,545 512,545 511,546 510,546 508,548 507,548 505,550 504,550 495,559 495,560 492,563 492,564 491,565 491,566 490,567 490,568 488,570 488,572 487,573 487,574 486,575 486,577 485,578 485,581 484,582 484,586 483,587 483,602 484,603 484,607 485,608 485,611 486,612 486,614 487,615 487,616 488,617 488,619 489,620 489,621 491,623 491,624 492,625 492,626 494,628 494,629 498,633 498,634 499,635 500,635 506,641 507,641 509,643 510,643 511,644 512,644 513,645 514,645 515,646 516,646 517,647 527,647 528,648 551,648 552,647 562,647 563,646 565,646 567,644 568,644 569,643 570,643 572,641 573,641 576,638 577,638 582,633 582,632 586,628 586,627 588,625 588,624 589,623 589,622 591,620 591,618 592,617 592,616 593,615 593,613 594,612 594,609 595,608 595,605 596,604 596,586 595,585 595,581 594,580 594,577 593,576 593,575 592,574 592,573 591,572 591,570 590,569 590,568 589,567 589,566 588,565 588,564 585,561 585,560 574,549 573,549 571,547 570,547 568,545 567,545 566,544 564,544 562,542 560,542 559,541 557,541 556,540 553,540 552,539 548,539 547,538" />
<polygon fill="#A2D183" id="shape_6" points="529,436 528,437 520,437 519,438 514,438 513,439 508,439 507,440 503,440 502,441 500,441 499,442 496,442 495,443 492,443 491,444 490,444 489,445 487,445 486,446 484,446 483,447 482,447 481,448 479,448 478,449 477,449 476,450 475,450 474,451 472,451 471,452 470,452 469,453 468,453 467,454 466,454 465,455 464,455 462,457 461,457 460,458 459,458 457,460 456,460 454,462 453,462 452,463 451,463 449,465 448,465 445,468 444,468 440,472 439,472 433,478 432,478 431,479 431,480 430,481 429,481 428,482 428,483 427,484 426,484 424,486 424,487 418,493 418,494 414,498 414,499 412,501 412,502 409,505 409,506 407,508 407,509 405,511 405,512 403,514 403,515 402,516 402,517 401,518 401,519 400,520 400,521 399,522 399,523 398,524 398,525 397,526 397,527 396,528 396,529 395,530 395,531 394,532 394,533 393,534 393,537 392,538 392,539 391,540 391,541 390,542 390,544 389,545 389,548 388,549 388,551 387,552 387,554 386,555 386,559 385,560 385,563 384,564 384,568 383,569 383,577 382,578 382,591 381,592 381,596 385,600 386,600 388,602 389,602 391,604 392,604 394,606 395,606 397,608 398,608 399,609 400,609 402,611 403,611 404,612 405,612 406,613 407,613 409,615 410,615 411,616 412,616 413,617 414,617 415,618 416,618 417,619 418,619 419,620 420,620 421,621 422,621 423,622 424,622 425,623 427,623 429,625 431,625 432,626 433,626 434,627 436,627 437,628 439,628 440,629 441,629 442,630 443,629 443,627 442,626 442,623 441,622 441,619 440,618 440,615 439,614 439,608 438,607 438,583 439,582 439,576 440,575 440,572 441,571 441,568 442,567 442,564 443,563 443,562 444,561 444,559 445,558 445,556 446,555 446,554 447,553 447,552 448,551 448,550 449,549 449,548 450,547 450,546 451,545 451,544 453,542 453,541 454,540 454,539 457,536 457,535 460,532 460,531 465,526 465,525 470,520 471,520 477,514 478,514 481,511 482,511 484,509 485,509 486,508 487,508 489,506 490,506 491,505 492,505 493,504 494,504 495,503 496,503 497,502 498,502 499,501 500,501 501,500 503,500 504,499 505,499 506,498 509,498 510,497 512,497 513,496 515,496 516,495 520,495 521,494 526,494 527,493 553,493 554,494 558,494 559,495 564,495 565,496 567,496 568,497 570,497 571,498 574,498 575,499 576,499 577,500 578,500 579,501 581,501 582,502 583,502 584,503 585,503 586,504 587,504 588,505 589,505 591,507 592,507 593,508 594,508 596,510 597,510 599,512 600,512 603,515 604,515 619,530 619,531 622,534 622,535 625,538 625,539 627,541 627,542 628,543 628,544 629,545 629,546 631,548 631,550 632,551 632,552 634,554 634,556 635,557 635,559 636,560 636,561 637,562 637,565 638,566 638,568 639,569 639,571 640,572 640,577 641,578 641,585 642,586 642,604 641,605 641,611 640,612 640,617 639,618 639,621 638,622 638,624 637,625 637,627 636,628 636,629 637,630 638,630 639,629 640,629 641,628 643,628 644,627 645,627 646,626 647,626 648,625 650,625 651,624 652,624 653,623 654,623 655,622 657,622 659,620 660,620 661,619 663,619 665,617 666,617 667,616 668,616 669,615 670,615 671,614 672,614 673,613 674,613 675,612 676,612 678,610 679,610 680,609 681,609 684,606 685,606 686,605 687,605 689,603 690,603 692,601 693,601 695,599 696,599 698,597 698,581 697,580 697,573 696,572 696,566 695,565 695,561 694,560 694,557 693,556 693,553 692,552 692,550 691,549 691,547 690,546 690,543 689,542 689,541 688,540 688,538 687,537 687,536 686,535 686,533 685,532 685,531 684,530 684,529 683,528 683,526 682,525 682,524 680,522 680,520 678,518 678,517 677,516 677,515 676,514 676,513 674,511 674,510 672,508 672,507 670,505 670,504 667,501 667,500 664,497 664,496 661,493 661,492 643,474 642,474 638,470 637,470 634,467 633,467 631,465 630,465 627,462 626,462 625,461 624,461 622,459 621,459 620,458 619,458 617,456 616,456 615,455 614,455 613,454 612,454 611,453 610,453 609,452 608,452 607,451 606,451 605,450 604,450 603,449 601,449 600,448 599,448 598,447 597,447 596,446 593,446 592,445 591,445 590,444 588,444 587,443 584,443 583,442 581,442 580,441 577,441 576,440 573,440 572,439 567,439 566,438 561,438 560,437 551,437 550,436" />
<polygon fill="#A2D183" id="shape_7" points="519,338 518,339 510,339 509,340 503,340 502,341 496,341 495,342 491,342 490,343 486,343 485,344 481,344 480,345 477,345 476,346 474,346 473,347 470,347 469,348 466,348 465,349 463,349 462,350 460,350 459,351 457,351 456,352 454,352 453,353 452,353 451,354 448,354 447,355 446,355 445,356 444,356 443,357 441,357 440,358 439,358 438,359 437,359 436,360 434,360 433,361 432,361 431,362 430,362 429,363 428,363 427,364 426,364 425,365 424,365 423,366 422,366 421,367 420,367 419,368 418,368 417,369 416,369 415,370 414,370 412,372 411,372 410,373 409,373 407,375 406,375 405,376 404,376 402,378 401,378 399,380 398,380 396,382 395,382 393,384 392,384 390,386 389,386 386,389 385,389 382,392 381,392 376,397 375,397 370,402 369,402 347,424 347,425 342,430 342,431 337,436 337,437 334,440 334,441 331,444 331,445 329,447 329,448 326,451 326,452 325,453 325,454 323,456 323,457 321,459 321,460 320,461 320,462 318,464 318,465 316,467 316,468 315,469 315,470 314,471 314,472 313,473 313,474 312,475 312,476 310,478 310,480 309,481 309,482 308,483 308,484 307,485 307,486 306,487 306,488 305,489 305,490 304,491 304,493 303,494 303,495 302,496 302,497 301,498 301,500 300,501 300,505 301,506 301,507 302,508 302,509 303,510 303,511 304,512 304,513 306,515 306,516 307,517 307,518 309,520 309,521 310,522 310,523 313,526 313,527 314,528 314,529 317,532 317,533 319,535 319,536 322,539 322,540 326,544 326,545 329,548 329,549 335,555 335,556 337,558 338,558 339,557 339,556 340,555 340,550 341,549 341,546 342,545 342,543 343,542 343,539 344,538 344,536 345,535 345,533 346,532 346,530 347,529 347,527 348,526 348,524 349,523 349,522 350,521 350,519 351,518 351,517 352,516 352,514 353,513 353,512 354,511 354,510 355,509 355,508 356,507 356,505 357,504 357,503 359,501 359,499 361,497 361,496 362,495 362,494 363,493 363,492 365,490 365,489 366,488 366,487 369,484 369,483 370,482 370,481 372,479 372,478 375,475 375,474 378,471 378,470 382,466 382,465 388,459 388,458 402,444 403,444 410,437 411,437 414,434 415,434 418,431 419,431 422,428 423,428 426,425 427,425 428,424 429,424 431,422 432,422 434,420 435,420 436,419 437,419 439,417 440,417 441,416 442,416 443,415 444,415 446,413 448,413 449,412 450,412 451,411 452,411 453,410 454,410 455,409 456,409 457,408 458,408 459,407 460,407 461,406 463,406 464,405 466,405 467,404 468,404 469,403 471,403 472,402 474,402 475,401 477,401 478,400 480,400 481,399 484,399 485,398 487,398 488,397 492,397 493,396 496,396 497,395 500,395 501,394 505,394 506,393 514,393 515,392 522,392 523,391 556,391 557,392 564,392 565,393 573,393 574,394 577,394 578,395 582,395 583,396 586,396 587,397 591,397 592,398 594,398 595,399 597,399 598,400 601,400 602,401 604,401 605,402 607,402 608,403 610,403 611,404 612,404 613,405 615,405 616,406 617,406 618,407 620,407 621,408 622,408 623,409 624,409 625,410 626,410 627,411 628,411 629,412 630,412 631,413 632,413 633,414 634,414 635,415 636,415 637,416 638,416 639,417 640,417 642,419 643,419 644,420 645,420 647,422 648,422 650,424 651,424 652,425 653,425 656,428 657,428 660,431 661,431 664,434 665,434 668,437 669,437 676,444 677,444 691,458 691,459 697,465 697,466 701,470 701,471 704,474 704,475 707,478 707,479 709,481 709,482 711,484 711,485 713,487 713,488 714,489 714,490 716,492 716,493 717,494 717,495 718,496 718,497 720,499 720,501 722,503 722,504 723,505 723,507 725,509 725,510 726,511 726,513 727,514 727,515 728,516 728,517 729,518 729,520 730,521 730,523 731,524 731,525 732,526 732,528 733,529 733,531 734,532 734,534 735,535 735,537 736,538 736,541 737,542 737,545 738,546 738,548 739,549 739,554 740,555 740,557 741,558 742,558 746,554 746,553 750,549 750,548 755,543 755,542 758,539 758,538 760,536 760,535 763,532 763,531 765,529 765,528 767,526 767,525 769,523 769,522 771,520 771,519 772,518 772,517 773,516 773,515 775,513 775,512 776,511 776,510 778,508 778,507 779,506 779,505 780,504 780,503 779,502 779,500 778,499 778,498 777,497 777,496 776,495 776,494 775,493 775,491 774,490 774,489 773,488 773,487 772,486 772,484 771,483 771,482 769,480 769,478 768,477 768,476 766,474 766,473 765,472 765,471 764,470 764,469 763,468 763,467 762,466 762,465 760,463 760,462 759,461 759,460 756,457 756,456 755,455 755,454 753,452 753,451 750,448 750,447 748,445 748,444 746,442 746,441 743,438 743,437 738,432 738,431 734,427 734,426 724,416 724,415 723,414 722,414 721,413 721,412 720,411 719,411 708,400 707,400 702,395 701,395 698,392 697,392 693,388 692,388 690,386 689,386 686,383 685,383 683,381 682,381 680,379 679,379 677,377 676,377 675,376 674,376 672,374 671,374 670,373 669,373 667,371 666,371 665,370 664,370 663,369 662,369 660,367 659,367 658,366 656,366 654,364 653,364 652,363 650,363 649,362 648,362 647,361 646,361 645,360 644,360 643,359 642,359 641,358 639,358 638,357 636,357 635,356 634,356 633,355 632,355 631,354 629,354 628,353 626,353 625,352 623,352 622,351 620,351 619,350 617,350 616,349 614,349 613,348 611,348 610,347 607,347 606,346 603,346 602,345 599,345 598,344 594,344 593,343 590,343 589,342 585,342 584,341 577,341 576,340 570,340 569,339 561,339 560,338" />
<polygon fill="#127AC3" id="shape_8" points="794,283 723,354 723,355 724,356 725,356 730,361 731,361 736,366 737,366 746,375 747,375 758,386 758,387 769,398 769,399 774,404 774,405 778,409 778,410 782,414 782,415 784,417 784,418 787,421 787,422 789,424 789,425 791,427 791,428 793,430 793,431 794,432 794,433 796,435 796,436 798,438 798,439 800,441 800,442 802,444 803,444 804,443 804,441 805,440 805,436 806,435 806,432 807,431 807,425 808,424 808,422 809,421 809,413 810,412 810,408 811,407 811,395 812,394 812,365 811,364 811,363 812,362 812,355 811,354 811,345 810,344 810,340 809,339 809,331 808,330 808,327 807,326 807,320 806,319 806,317 805,316 805,311 804,310 804,308 803,307 803,304 802,303 802,301 801,300 801,297 800,296 800,294 799,293 799,290 798,289 798,288 797,287 797,285 795,283" />
<polygon fill="#127AC3" id="shape_9" points="284,283 282,285 282,288 281,289 281,290 280,291 280,294 279,295 279,297 278,298 278,301 277,302 277,304 276,305 276,308 275,309 275,311 274,312 274,316 273,317 273,320 272,321 272,328 271,329 271,331 270,332 270,340 269,341 269,346 268,347 268,358 267,359 267,362 268,363 268,388 267,389 267,392 268,393 268,405 269,406 269,410 270,411 270,419 271,420 271,422 272,423 272,430 273,431 273,434 274,435 274,439 275,440 275,442 276,443 278,443 279,442 279,441 281,439 281,438 283,436 283,435 285,433 285,432 286,431 286,430 288,428 288,427 291,424 291,423 293,421 293,420 295,418 295,417 298,414 298,413 301,410 301,409 305,405 305,404 311,398 311,397 321,387 321,386 330,377 331,377 342,366 343,366 348,361 349,361 353,357 354,357 356,355 356,354 285,283" />
<polygon fill="#127AC3" id="shape_10" points="710,164 581,293 581,294 582,295 584,295 585,296 587,296 588,297 595,297 596,298 599,298 600,299 604,299 605,300 608,300 609,301 613,301 614,302 615,302 616,303 621,303 622,304 623,304 624,305 628,305 629,306 630,306 631,307 634,307 635,308 636,308 637,309 640,309 641,310 642,310 643,311 645,311 646,312 647,312 648,313 650,313 651,314 652,314 653,315 655,315 656,316 657,316 658,317 660,317 661,318 662,318 663,319 664,319 665,320 666,320 667,321 669,321 671,323 673,323 674,324 675,324 676,325 677,325 679,327 680,327 681,328 682,328 683,329 685,329 775,239 775,238 774,237 774,236 773,235 773,234 771,232 771,231 769,229 769,228 767,226 767,225 766,224 766,223 763,220 763,219 761,217 761,216 758,213 758,212 755,209 755,208 751,204 751,203 746,198 746,197 718,169 717,169 713,165 712,165 711,164" />
<polygon fill="#127AC3" id="shape_11" points="368,164 366,166 365,166 361,170 360,170 334,196 334,197 330,201 330,202 325,207 325,208 322,211 322,212 319,215 319,216 317,218 317,219 314,222 314,223 312,225 312,226 310,228 310,229 309,230 309,231 307,233 307,234 306,235 306,236 304,238 304,239 394,329 396,329 397,328 398,328 399,327 400,327 401,326 402,326 403,325 404,325 405,324 406,324 407,323 408,323 409,322 410,322 411,321 412,321 413,320 414,320 415,319 417,319 419,317 421,317 422,316 423,316 424,315 426,315 427,314 428,314 429,313 431,313 432,312 433,312 434,311 436,311 437,310 438,310 439,309 442,309 443,308 444,308 445,307 448,307 449,306 450,306 451,305 454,305 455,304 457,304 458,303 462,303 463,302 464,302 465,301 470,301 471,300 472,300 473,299 479,299 480,298 482,298 483,297 490,297 491,296 494,296 495,295 497,295 498,294 498,293 369,164" />
<polygon fill="#127AC3" id="shape_12" points="532,103 531,104 512,104 511,105 509,105 508,106 497,106 496,107 493,107 492,108 486,108 485,109 483,109 482,110 477,110 476,111 474,111 473,112 469,112 468,113 466,113 465,114 462,114 461,115 459,115 458,116 456,116 455,117 453,117 452,118 450,118 449,119 447,119 446,120 444,120 443,121 442,121 441,122 439,122 438,123 437,123 436,124 434,124 433,125 432,125 431,126 430,126 429,127 428,127 427,128 425,128 424,129 423,129 422,130 421,130 420,131 419,131 418,132 417,132 416,133 415,133 414,134 413,134 412,135 411,135 410,136 409,136 407,138 407,139 539,271 540,271 672,139 672,138 670,136 669,136 668,135 667,135 666,134 665,134 664,133 663,133 662,132 661,132 660,131 659,131 658,130 657,130 656,129 655,129 654,128 653,128 652,127 651,127 650,126 648,126 647,125 646,125 645,124 643,124 641,122 638,122 637,121 636,121 635,120 633,120 632,119 630,119 629,118 627,118 626,117 625,117 624,116 621,116 620,115 618,115 617,114 614,114 613,113 611,113 610,112 606,112 605,111 603,111 602,110 597,110 596,109 594,109 593,108 587,108 586,107 583,107 582,106 573,106 572,105 568,105 567,104 549,104 548,103 540,103 539,104 538,103 537,104 536,103 535,104 534,103 533,104" />
</svg>